<svg id="Capa_1" data-name="Capa 1" xmlns="http://www.w3.org/2000/svg" viewBox="0 0 336.74 131.45"><defs><style>.cls-1{fill:#88cff4;}.cls-10,.cls-11,.cls-12,.cls-13,.cls-14,.cls-15,.cls-16,.cls-17,.cls-2,.cls-3,.cls-4,.cls-5,.cls-6,.cls-7,.cls-8,.cls-9{fill:none;stroke-miterlimit:10;}.cls-10,.cls-11,.cls-12,.cls-13,.cls-14,.cls-15,.cls-16,.cls-2,.cls-3,.cls-4,.cls-5,.cls-6,.cls-7,.cls-8,.cls-9{stroke:#727272;}.cls-2{stroke-width:1.11px;}.cls-3{stroke-width:1.04px;}.cls-4{stroke-width:1.01px;}.cls-5{stroke-width:1.01px;}.cls-6{stroke-width:1.04px;}.cls-7{stroke-width:1.07px;}.cls-8{stroke-width:1.03px;}.cls-9{stroke-width:1.08px;}.cls-10{stroke-width:1.02px;}.cls-11{stroke-width:1.06px;}.cls-12{stroke-width:1.06px;}.cls-13{stroke-width:0.97px;}.cls-14{stroke-width:1.09px;}.cls-15{stroke-width:1.11px;}.cls-16{stroke-width:1.03px;}.cls-17{stroke:#1d1d1b;stroke-width:0.56px;}.cls-18{fill:#3b7999;}</style></defs><path class="cls-1" d="M333.57,223s5.8-4.28,10.06.22c0,0,4.06-5.07,10.09.06a8.1,8.1,0,0,1,10.85.27s3.79-4.81,11-.27L400.61,245l23.51,20.36L472,306.74s-5.17-4.86-10.34.07c0,0-5.64-5.06-10.3,0,0,0-5.21-4.72-10-.16,0,0-5.7-4.76-10.37.2,0,0-5.6-5.61-10.59-.08,0,0-3.82-4.86-10.31,0,0,0-4.25-4.69-10.47,0a7.41,7.41,0,0,0-10.37,0s-5.65-4.93-10.21,0c0,0-5.77-4.27-10.27-.12l-1.58-.91-14.92-13.35-9.7-8.71s4.63-4.79,9.7-.35c0,0,4.49-3.89,9-1.31l-15.13-12.92L324,249.87s4.16-4.85,10.67,0a6.44,6.44,0,0,1,9.35-.19s5.39-4.27,10.18,0c0,0,4.93-4.74,9.42-.71l-16.39-14Z" transform="translate(-135.22 -205.48)"/><path class="cls-2" d="M396.69,245" transform="translate(-135.22 -205.48)"/><path class="cls-2" d="M420.09,265.32" transform="translate(-135.22 -205.48)"/><line class="cls-2" x1="203.5" y1="77.89" x2="229.86" y2="101.47"/><polyline class="cls-2" points="323.5 101.61 226.44 18.46 225.24 17.48"/><polyline class="cls-2" points="312.9 101.61 216.23 18.64 214.87 17.48"/><polyline class="cls-2" points="303.3 101.7 206.23 18.55 204.66 17.34"/><path class="cls-2" d="M427.92,307.18l-.06-.05-.29-.24-.5-.43-.72-.62-.91-.78-1.09-.94L423.08,303l-1.43-1.23-1.58-1.35L418.35,299l-1.85-1.58-1.95-1.68-2.07-1.77-2.15-1.85-2.23-1.91-2.3-2-2.35-2-2.4-2.05L398.62,282l-2.44-2.1-2.46-2.11-2.45-2.1-2.44-2.09-2.41-2.07-2.37-2-2.32-2-2.25-1.94-2.18-1.87-2.1-1.8-2-1.71-1.89-1.62-1.76-1.51-1.63-1.4-1.48-1.28-1.33-1.13-1.16-1-1-.83-.79-.68-.57-.49c-.56-.48-1-1.06-1.59-1.54l-2.44-2.09-2.87-2.46-2.4-2-1-.85-20.08-17.18-1.51-1.3" transform="translate(-135.22 -205.48)"/><line class="cls-2" x1="215.71" y1="44.39" x2="281.76" y2="101.33"/><polyline class="cls-2" points="271.93 101.52 205.87 44.57 205.47 44.2"/><line class="cls-2" x1="195.66" y1="44.39" x2="260.82" y2="101.33"/><path class="cls-3" d="M385.83,306.81l-65.16-56.94,1.06-.77a6,6,0,0,1,3.1-1.35,7.81,7.81,0,0,1,4.42,1c.15.08,1.63.76,1.63.94l.37-.18a7,7,0,0,1,9.44.18l.62-.18a7.17,7.17,0,0,1,9.56.18l.38-.36a6.82,6.82,0,0,1,9.15-.1c.27.25.53.49.82.73" transform="translate(-135.22 -205.48)"/><line class="cls-2" x1="213.63" y1="77.89" x2="240.41" y2="101.33"/><path class="cls-3" d="M339.15,283.72a5.85,5.85,0,0,1,4.91-2,11.22,11.22,0,0,1,3.81,1c.38.17,1.19.77,1.58.62.23-.08.48-.45.67-.61a3.72,3.72,0,0,1,.68-.5,8,8,0,0,1,1.66-.68,6.56,6.56,0,0,1,2.92-.24c1.55.22,2.48,1.34,3.71,2.13" transform="translate(-135.22 -205.48)"/><path class="cls-3" d="M376.69,298.84a5.88,5.88,0,0,0-1.95-1.33,7.71,7.71,0,0,0-2.37-.49,7.27,7.27,0,0,0-2.66.37,8.61,8.61,0,0,0-1.63.75,4.28,4.28,0,0,0-.67.52c-.18.17-.41.55-.64.64l-.15-.07a7.5,7.5,0,0,0-4.58-1.75,7.12,7.12,0,0,0-2.66.37,8.28,8.28,0,0,0-1.63.75,3.29,3.29,0,0,0-.66.52,2.09,2.09,0,0,0-.19.21" transform="translate(-135.22 -205.48)"/><path class="cls-3" d="M365.36,306.69a4.82,4.82,0,0,1,.37-.39,3.72,3.72,0,0,1,.68-.5,8.28,8.28,0,0,1,1.66-.68,6.9,6.9,0,0,1,2.67-.27,7.53,7.53,0,0,1,4.51,1.92l.15.08c.23-.09.48-.46.66-.62a4.49,4.49,0,0,1,.68-.49,8.4,8.4,0,0,1,1.67-.69,7.08,7.08,0,0,1,2.67-.27,7.55,7.55,0,0,1,4.51,1.92l.12.11c.22-.08.48-.45.66-.62a4.69,4.69,0,0,1,.68-.49,9.23,9.23,0,0,1,1.66-.69,7.34,7.34,0,0,1,2.68-.27,7.51,7.51,0,0,1,4.5,1.93l.15.07.16.11.14.07c.23-.09.48-.46.67-.62a3.72,3.72,0,0,1,.68-.5,8.28,8.28,0,0,1,1.66-.68,6.9,6.9,0,0,1,2.67-.27,7.55,7.55,0,0,1,4.51,1.92l.15.08c.23-.09.48-.46.66-.62a4,4,0,0,1,.68-.49,8.56,8.56,0,0,1,1.66-.69,7.15,7.15,0,0,1,2.68-.27,7.55,7.55,0,0,1,4.51,1.92l.11.11c.23-.08.48-.45.67-.62a4.2,4.2,0,0,1,.68-.49A9.23,9.23,0,0,1,420,305a7.31,7.31,0,0,1,2.67-.27,7.54,7.54,0,0,1,4.51,1.93l.15.07c.23-.08.48-.45.66-.61a4.18,4.18,0,0,1,.69-.5,8,8,0,0,1,1.66-.68,6.88,6.88,0,0,1,2.67-.27,7.55,7.55,0,0,1,4.51,1.92l.43.09c.14-.14.26-.3.37-.39a4.1,4.1,0,0,1,.68-.5,8.52,8.52,0,0,1,1.66-.68,7,7,0,0,1,2.68-.27,7.5,7.5,0,0,1,4.5,1.92l.15.08c.23-.09.48-.46.67-.62a3.67,3.67,0,0,1,.68-.49,8.31,8.31,0,0,1,1.66-.69,7.1,7.1,0,0,1,2.67-.27,7.55,7.55,0,0,1,4.51,1.92l.12.11c.23-.08.48-.45.66-.62a4.79,4.79,0,0,1,.69-.49,8.67,8.67,0,0,1,1.66-.69,7.29,7.29,0,0,1,2.67-.27,7.56,7.56,0,0,1,4.51,1.93l.14.07" transform="translate(-135.22 -205.48)"/><path class="cls-4" d="M366.66,290a18.9,18.9,0,0,0-1.85-1.38,4.36,4.36,0,0,0-2.19-.44,7,7,0,0,0-2.54.56,8,8,0,0,0-1.52.84,3.5,3.5,0,0,0-.6.55c-.16.18-.37.56-.58.67l-.15-.06a7.32,7.32,0,0,0-4.55-1.35,7,7,0,0,0-2.54.56,8,8,0,0,0-1.52.84,3.92,3.92,0,0,0-.6.55l-.17.23" transform="translate(-135.22 -205.48)"/><path class="cls-3" d="M376,297.92a4.82,4.82,0,0,1,.37-.39,3.72,3.72,0,0,1,.68-.5,8.52,8.52,0,0,1,1.66-.68,6.9,6.9,0,0,1,2.67-.27,7.53,7.53,0,0,1,4.51,1.92l.15.08c.23-.09.48-.46.66-.62a4.12,4.12,0,0,1,.69-.49,8.07,8.07,0,0,1,1.66-.69,7.08,7.08,0,0,1,2.67-.27,7.55,7.55,0,0,1,4.51,1.92l.12.11c.23-.08.48-.45.66-.62a4.69,4.69,0,0,1,.68-.49,9.23,9.23,0,0,1,1.66-.69A7.36,7.36,0,0,1,402,296a7.56,7.56,0,0,1,4.51,1.93l.14.07.16.11.14.07c.23-.09.48-.46.67-.62a3.72,3.72,0,0,1,.68-.5,8.28,8.28,0,0,1,1.66-.68,6.9,6.9,0,0,1,2.67-.27,7.53,7.53,0,0,1,4.51,1.92l.15.08c.23-.09.48-.46.66-.62a4.49,4.49,0,0,1,.68-.49,8.4,8.4,0,0,1,1.67-.69A7.08,7.08,0,0,1,423,296a10.61,10.61,0,0,1,4.78,1.94.13.13,0,0,0,.1,0c.07,0,.28-.43.38-.52a3.37,3.37,0,0,1,.71-.53,9.23,9.23,0,0,1,1.66-.69,7.31,7.31,0,0,1,2.67-.27,5.93,5.93,0,0,1,4.18,2.07c.09.11.21.24.35.2a.48.48,0,0,0,.16-.13,6.65,6.65,0,0,1,.64-.75,3.72,3.72,0,0,1,.68-.5,8,8,0,0,1,1.66-.68,6.88,6.88,0,0,1,2.67-.27,7.55,7.55,0,0,1,4.51,1.92l.43.09c.14-.14.27-.3.37-.39a4.1,4.1,0,0,1,.68-.5,8.52,8.52,0,0,1,1.66-.68,7,7,0,0,1,2.68-.27,7.65,7.65,0,0,1,2.48.61,5.4,5.4,0,0,1,1.13.62c.33.28.59.63.94.89" transform="translate(-135.22 -205.48)"/><path class="cls-3" d="M365.89,289c.13-.14.26-.3.37-.4a3.67,3.67,0,0,1,.68-.49,8.67,8.67,0,0,1,1.66-.69,7.29,7.29,0,0,1,2.67-.27,7.5,7.5,0,0,1,4.51,1.93l.15.07c.22-.08.48-.45.66-.61a3.72,3.72,0,0,1,.68-.5,9.23,9.23,0,0,1,1.66-.69,7.31,7.31,0,0,1,2.67-.27,7.51,7.51,0,0,1,4.51,1.93l.12.11c.23-.09.48-.46.67-.62a3.72,3.72,0,0,1,.68-.5,8.28,8.28,0,0,1,1.66-.68,6.9,6.9,0,0,1,2.67-.27,7.53,7.53,0,0,1,4.51,1.92l.15.08.16.11.14.06c.23-.08.48-.45.66-.62a4.12,4.12,0,0,1,.69-.49,8.67,8.67,0,0,1,1.66-.69,7.29,7.29,0,0,1,2.67-.27,7.5,7.5,0,0,1,4.51,1.93l.14.07c.23-.08.48-.45.67-.61a3.72,3.72,0,0,1,.68-.5,9.23,9.23,0,0,1,1.66-.69,7.31,7.31,0,0,1,2.67-.27,10.62,10.62,0,0,1,4.79,1.95s.06,0,.09,0,.29-.42.39-.51a3.41,3.41,0,0,1,.71-.54,8.28,8.28,0,0,1,1.66-.68,6.9,6.9,0,0,1,2.67-.27,5.85,5.85,0,0,1,4.17,2.07c.09.11.22.23.35.19a.36.36,0,0,0,.17-.13,6.42,6.42,0,0,1,.63-.75,4,4,0,0,1,.68-.49,9.23,9.23,0,0,1,1.66-.69,7.36,7.36,0,0,1,2.68-.27,7.55,7.55,0,0,1,4.51,1.92l.43.1c.13-.14.26-.3.37-.4a3.67,3.67,0,0,1,.68-.49,9.23,9.23,0,0,1,1.66-.69,7.31,7.31,0,0,1,2.67-.27,7.78,7.78,0,0,1,2.48.61,4.87,4.87,0,0,1,1.14.63c.33.27.59.62.93.89" transform="translate(-135.22 -205.48)"/><path class="cls-3" d="M427.61,280.69a6.16,6.16,0,0,1,4.37-3c2.33-.37,3.93,1.08,5.73,2.31" transform="translate(-135.22 -205.48)"/><path class="cls-3" d="M408.37,281.15a5.56,5.56,0,0,1,4.87-2.52,5.5,5.5,0,0,1,1.86.43,10,10,0,0,1,2.2,1.54c.7.56,1,1.3,1.71.44.21-.24.6-.76.83-1A5,5,0,0,1,427,280a3.53,3.53,0,0,0,1.35.75" transform="translate(-135.22 -205.48)"/><path class="cls-3" d="M397.68,281.58a8.93,8.93,0,0,0,1.13-.84,3.63,3.63,0,0,1,.66-.51,9.22,9.22,0,0,1,1.64-.73,7.13,7.13,0,0,1,2.67-.35c1.82.1,2.37.75,3.91,1.64a2.36,2.36,0,0,0,.61.33" transform="translate(-135.22 -205.48)"/><path class="cls-3" d="M377.82,281.84c.23-.09.24-.38.42-.54a4.81,4.81,0,0,1,.67-.52,8.91,8.91,0,0,1,1.64-.73,7.12,7.12,0,0,1,2.67-.34,7,7,0,0,1,4.38,1.77l.49.2.14.06c-.13.17.47-.47.65-.64a3.7,3.7,0,0,1,.67-.51,8,8,0,0,1,1.64-.73,7,7,0,0,1,2.66-.35c1.74.09,2.88.95,4.23,2.07" transform="translate(-135.22 -205.48)"/><path class="cls-3" d="M367.43,281.83c.47.13.69-.43,1.18-.72a8.29,8.29,0,0,1,1.64-.73,8.62,8.62,0,0,1,4-.46,7.28,7.28,0,0,1,3.6,1.92" transform="translate(-135.22 -205.48)"/><path class="cls-3" d="M357.85,282.06a3.52,3.52,0,0,1,.56-.52,8.9,8.9,0,0,1,1.62-.77,8.6,8.6,0,0,1,4-.58,7.22,7.22,0,0,1,3.66,1.82" transform="translate(-135.22 -205.48)"/><path class="cls-3" d="M348.53,274.21s3.1-5.45,9.92-.25" transform="translate(-135.22 -205.48)"/><path class="cls-3" d="M339.68,266.32s3.1-5.46,9.92-.25" transform="translate(-135.22 -205.48)"/><path class="cls-3" d="M330.19,258.11s3.1-5.45,9.92-.25" transform="translate(-135.22 -205.48)"/><path class="cls-3" d="M358.63,274.24c1.81-3.26,7.5-3.25,9.8-.58" transform="translate(-135.22 -205.48)"/><path class="cls-3" d="M349.6,266.33c1.81-3.27,7.5-3.26,9.8-.58" transform="translate(-135.22 -205.48)"/><path class="cls-3" d="M340.24,258.12a5.35,5.35,0,0,1,4.2-2.48c2.36-.25,4.48,1.27,6.27,2.65" transform="translate(-135.22 -205.48)"/><path class="cls-3" d="M368.42,273.49c.22-.09.24-.38.42-.54a3.86,3.86,0,0,1,.67-.52,8.62,8.62,0,0,1,1.64-.73,7,7,0,0,1,2.66-.34,7,7,0,0,1,4.38,1.77l.49.2.15.06c-.14.17.46-.47.64-.64a4.09,4.09,0,0,1,.67-.51,8.29,8.29,0,0,1,1.64-.73,7.07,7.07,0,0,1,2.66-.35c1.59.09,3.31,1.34,4.43,2.4" transform="translate(-135.22 -205.48)"/><path class="cls-3" d="M388.91,273.61a1.16,1.16,0,0,1,.3-1.11c1.61-1.8,5-2,7-1a11.61,11.61,0,0,1,2.79,1.86" transform="translate(-135.22 -205.48)"/><path class="cls-3" d="M399,272.89a5.76,5.76,0,0,1,4.21-2.55,5.44,5.44,0,0,1,3.34,1.24c.53.38,1.87,1.84,2.47,1.75a1.13,1.13,0,0,0,.82-.67,4.69,4.69,0,0,1,3.84-2.39,3.74,3.74,0,0,1,2.85.92c1,.7,1.9,1.44,2.81,2.21" transform="translate(-135.22 -205.48)"/><path class="cls-3" d="M419,272.62a6,6,0,0,1,3.61-2.86c1.62-.48,4.12.72,5.34,1.74" transform="translate(-135.22 -205.48)"/><path class="cls-5" d="M359.09,265.31c.21-.09.23-.38.4-.54a3.88,3.88,0,0,1,.62-.52,8.12,8.12,0,0,1,1.55-.73,6.57,6.57,0,0,1,6.63,1.44l.46.2.14.06c.09,0,1.46-1.39,1.7-1.55a5.51,5.51,0,0,1,2.74-1,6.46,6.46,0,0,1,4.33,1.34" transform="translate(-135.22 -205.48)"/><path class="cls-3" d="M379.63,265.61a1.16,1.16,0,0,1,.3-1.11,5,5,0,0,1,2.94-1.59,6.92,6.92,0,0,1,3.67.19,10.42,10.42,0,0,1,3.2,2.25" transform="translate(-135.22 -205.48)"/><path class="cls-3" d="M389.37,264.85a5.59,5.59,0,0,1,3.73-2.57,6,6,0,0,1,4.68,1.5" transform="translate(-135.22 -205.48)"/><path class="cls-3" d="M398.86,264.55a5.45,5.45,0,0,1,4.85-2.59,5.73,5.73,0,0,1,2.15.26A5.11,5.11,0,0,1,407,263l2.37,1.88" transform="translate(-135.22 -205.48)"/><path class="cls-3" d="M409.2,264.18a6,6,0,0,1,3.61-2.86,6,6,0,0,1,4.94,1.37" transform="translate(-135.22 -205.48)"/><path class="cls-5" d="M350.2,258.11c.21-.11.2-.4.35-.58a4.38,4.38,0,0,1,.58-.56,8.4,8.4,0,0,1,1.48-.86,6.35,6.35,0,0,1,2.47-.55,6.45,6.45,0,0,1,4.26,1.42l.48.16.14.05c.1,0,1.34-1.51,1.56-1.7a4.69,4.69,0,0,1,4.53-.83,15.86,15.86,0,0,1,2.05,1.26" transform="translate(-135.22 -205.48)"/><path class="cls-3" d="M369.9,257.56c.43-1.3.65-2.08,1.94-2.71a6.05,6.05,0,0,1,3.19-.56,5.12,5.12,0,0,1,2.38.86,6.52,6.52,0,0,0,.84.4" transform="translate(-135.22 -205.48)"/><path class="cls-6" d="M380.12,257.06a5.47,5.47,0,0,1,3.68-2.56c1.93-.36,4.09.83,5.44,2.11" transform="translate(-135.22 -205.48)"/><path class="cls-7" d="M388.87,256.23a5.8,5.8,0,0,1,5.09-2.59,6.29,6.29,0,0,1,2.25.26,5.74,5.74,0,0,1,1.15.73l2.49,1.88" transform="translate(-135.22 -205.48)"/><path class="cls-8" d="M399.48,255.75a5.9,5.9,0,0,1,3.48-2.86,6.18,6.18,0,0,1,5.05,1.37" transform="translate(-135.22 -205.48)"/><path class="cls-3" d="M360.29,249a5.21,5.21,0,0,1,4-2.95c2-.24,3.84.95,5.26,2.2" transform="translate(-135.22 -205.48)"/><path class="cls-6" d="M370.5,248.51a5.45,5.45,0,0,1,3.68-2.56c2.17-.4,3.78,1.09,5.4,2.29" transform="translate(-135.22 -205.48)"/><path class="cls-7" d="M379.17,247.73a5.72,5.72,0,0,1,4.33-2.57,5.11,5.11,0,0,1,2.49.23,10,10,0,0,1,1.42.65,3.85,3.85,0,0,1,.67.47c.19.15.38.47.6.55" transform="translate(-135.22 -205.48)"/><path class="cls-8" d="M389.37,247.2a5.89,5.89,0,0,1,3.49-2.86c1.91-.59,4,.52,5.48,1.54" transform="translate(-135.22 -205.48)"/><path class="cls-3" d="M351.13,241.38a5.18,5.18,0,0,1,4-2.95,7.24,7.24,0,0,1,5.11,1.76" transform="translate(-135.22 -205.48)"/><path class="cls-6" d="M360.63,240.49a5.49,5.49,0,0,1,3.68-2.56,6,6,0,0,1,4.9,1.49" transform="translate(-135.22 -205.48)"/><path class="cls-9" d="M369.63,239.7a5.86,5.86,0,0,1,4.43-2.57,5.37,5.37,0,0,1,2.55.23,10.32,10.32,0,0,1,1.45.64,5.58,5.58,0,0,1,.69.47c.19.16.38.47.62.55" transform="translate(-135.22 -205.48)"/><path class="cls-10" d="M379.7,239.17a5.27,5.27,0,0,1,3.68-2.87c1.81-.48,4.56.58,5.86,1.71" transform="translate(-135.22 -205.48)"/><path class="cls-3" d="M342,233.47a5.23,5.23,0,0,1,4-3,7.28,7.28,0,0,1,5.11,1.77" transform="translate(-135.22 -205.48)"/><path class="cls-11" d="M351.41,232.75a5.72,5.72,0,0,1,3.81-2.57,6.28,6.28,0,0,1,5.06,1.5" transform="translate(-135.22 -205.48)"/><path class="cls-12" d="M360.62,231.79a5.53,5.53,0,0,1,4.24-2.56,4.82,4.82,0,0,1,2.44.23,10.06,10.06,0,0,1,1.38.64,4.45,4.45,0,0,1,.66.48c.19.15.37.47.59.55" transform="translate(-135.22 -205.48)"/><path class="cls-10" d="M370.27,231.6a5.28,5.28,0,0,1,3.67-2.87,8.73,8.73,0,0,1,6.33,1.51" transform="translate(-135.22 -205.48)"/><path class="cls-13" d="M361.24,223.52c.72-1.23,2.45-2,4.12-2.25a10.51,10.51,0,0,1,6.51,1.67v0l96.75,83.78L302,306.81l-82.72-83.58L135.9,308.65l10.81,10.8" transform="translate(-135.22 -205.48)"/><path class="cls-14" d="M350.09,223.69a6.64,6.64,0,0,1,4.82-2.44,6.42,6.42,0,0,1,2.76.2,13.67,13.67,0,0,1,1.57.6,7,7,0,0,1,.75.44c.2.15.41.45.66.52" transform="translate(-135.22 -205.48)"/><path class="cls-15" d="M340.09,223.24a6.78,6.78,0,0,1,4.65-2,8.25,8.25,0,0,1,5.65,2" transform="translate(-135.22 -205.48)"/><path class="cls-16" d="M330.23,223a21.06,21.06,0,0,1,3.09-1.34,6.32,6.32,0,0,1,3.7-.14,12.27,12.27,0,0,1,3.27,1.7" transform="translate(-135.22 -205.48)"/><polyline class="cls-2" points="177.54 14.01 177.54 7.36 185.54 7.36"/><polyline class="cls-2" points="185.54 14.19 185.54 7.36 199.96 7.36 199.96 14.36"/><polyline class="cls-2" points="177.54 7.36 175.14 7.36 175.14 0.56 185.54 0.56 201.42 0.56 202.76 0.56 202.76 7.36 200.49 7.36"/><line class="cls-2" x1="186.21" y1="0.56" x2="186.21" y2="7.36"/><line class="cls-2" x1="84.14" y1="17.48" x2="194.92" y2="17.48"/><polyline class="cls-2" points="166.79 101.33 158.39 115.98 84.06 40.72 11.49 115.09"/><polyline class="cls-2" points="158.39 115.98 328.31 115.98 334.21 101.61"/><line class="cls-2" x1="24.64" y1="101.61" x2="24.64" y2="131.45"/><line class="cls-2" x1="158.39" y1="115.98" x2="158.39" y2="131.45"/><line class="cls-2" x1="320.44" y1="116.53" x2="320.44" y2="131.45"/><polyline class="cls-17" points="105.99 39.48 121.47 39.48 214.3 39.48 220.39 39.48"/><polyline class="cls-17" points="126.07 59.84 141.61 59.84 202.06 59.84 203.13 59.84"/><polyline class="cls-17" points="146.88 80.85 162.92 80.85 203.5 80.85 206.81 80.85"/><polyline class="cls-17" points="208.69 101.61 196.08 89 124.9 17.83"/><line class="cls-17" x1="190.65" y1="42.26" x2="166.35" y2="17.96"/><polyline class="cls-3" points="236.65 17.05 236.65 14.36 84.41 14.36 84.41 16.96"/><rect class="cls-18" x="68.97" y="98.8" width="36.88" height="26.03" rx="2.17"/><rect class="cls-2" x="65.64" y="96.57" width="36.88" height="26.03" rx="2.17"/><line class="cls-2" x1="84.07" y1="96.57" x2="84.07" y2="122.6"/><line class="cls-2" x1="65.64" y1="109.59" x2="102.51" y2="109.59"/></svg>