<svg id="Capa_1" data-name="Capa 1" xmlns="http://www.w3.org/2000/svg" viewBox="0 0 313.78 310.89"><defs><style>.cls-1{fill:#88cff4;}.cls-2,.cls-3,.cls-5,.cls-6{fill:none;stroke-miterlimit:10;}.cls-2{stroke:#1d1d1b;stroke-width:2px;}.cls-3,.cls-5{stroke:#727272;}.cls-3{stroke-width:4px;}.cls-4{fill:#3b7999;}.cls-5{stroke-width:3px;}.cls-6{stroke:#fff;}</style></defs><path class="cls-1" d="M292.63,386.6a5.54,5.54,0,0,0,4.21-1.49,6,6,0,0,0,1.81-4.16,10.22,10.22,0,0,0-1-3.67,34.7,34.7,0,0,0-2.06-4,53.6,53.6,0,0,0-3-4.54c-1.07,1.46-2.06,3-3,4.54a36.31,36.31,0,0,0-2,4,10.22,10.22,0,0,0-1,3.67,6,6,0,0,0,1.81,4.16,5.54,5.54,0,0,0,4.21,1.49Z" transform="translate(-112.94 -275.73)"/><path class="cls-2" d="M289.63,386.6a5.54,5.54,0,0,0,4.21-1.49,6,6,0,0,0,1.81-4.16,10.22,10.22,0,0,0-1-3.67,34.7,34.7,0,0,0-2.06-4,53.6,53.6,0,0,0-3-4.54c-1.07,1.46-2.06,3-3,4.54a36.31,36.31,0,0,0-2,4,10.22,10.22,0,0,0-1,3.67,6,6,0,0,0,1.81,4.16,5.54,5.54,0,0,0,4.21,1.49Z" transform="translate(-112.94 -275.73)"/><path class="cls-1" d="M292.63,411.29a5.54,5.54,0,0,0,4.21-1.49,6,6,0,0,0,1.81-4.16,10.17,10.17,0,0,0-1-3.67,34.7,34.7,0,0,0-2.06-4,52,52,0,0,0-3-4.54c-1.07,1.46-2.06,3-3,4.54a36.31,36.31,0,0,0-2,4,10.17,10.17,0,0,0-1,3.67,6,6,0,0,0,1.81,4.16,5.54,5.54,0,0,0,4.21,1.49Z" transform="translate(-112.94 -275.73)"/><path class="cls-2" d="M289.63,411.29a5.54,5.54,0,0,0,4.21-1.49,6,6,0,0,0,1.81-4.16,10.17,10.17,0,0,0-1-3.67,34.7,34.7,0,0,0-2.06-4,52,52,0,0,0-3-4.54c-1.07,1.46-2.06,3-3,4.54a36.31,36.31,0,0,0-2,4,10.17,10.17,0,0,0-1,3.67,6,6,0,0,0,1.81,4.16,5.54,5.54,0,0,0,4.21,1.49Z" transform="translate(-112.94 -275.73)"/><polygon class="cls-3" points="156.89 308.89 270.65 308.89 270.65 222.97 302.33 241.22 310.97 227.78 156.89 137.53 2.81 227.78 11.45 241.22 43.13 222.97 43.13 308.89 156.89 308.89"/><path class="cls-4" d="M222.07,466.06l-45,25.2v73.08H363.91V491.26l-93.42-53.64-6.9,4.05-13.82,8.11c-3.48,2-6.94,4.14-10.45,6.13-1.77,1-2.82,3.38-3.69,5.18a34.92,34.92,0,0,0-2.55,7.39,37.9,37.9,0,0,0,2.26,22.76c.17.41.35.81.53,1.22l.72,2,1.32,2.76,4,6.48s12.6,12.48,1.32,26.4c0,0-11.28,14.28-28.68,0a21.57,21.57,0,0,1-.6-24.72l3.36-5.76S227.23,480,222.07,466.06Z" transform="translate(-112.94 -275.73)"/><path class="cls-1" d="M216.56,386.6a5.54,5.54,0,0,0,4.21-1.49,6,6,0,0,0,1.81-4.16,10.23,10.23,0,0,0-1-3.67,33.11,33.11,0,0,0-2.05-4c-.92-1.55-1.91-3.08-3-4.54-1.07,1.46-2.06,3-3,4.54a34.63,34.63,0,0,0-2.05,4,10.22,10.22,0,0,0-1,3.67,6,6,0,0,0,1.81,4.16,5.53,5.53,0,0,0,4.21,1.49Z" transform="translate(-112.94 -275.73)"/><path class="cls-2" d="M213.56,386.6a5.54,5.54,0,0,0,4.21-1.49,6,6,0,0,0,1.81-4.16,10.23,10.23,0,0,0-1-3.67,33.11,33.11,0,0,0-2.05-4c-.92-1.55-1.91-3.08-3-4.54-1.07,1.46-2.06,3-3,4.54a34.63,34.63,0,0,0-2.05,4,10.22,10.22,0,0,0-1,3.67,6,6,0,0,0,1.81,4.16,5.53,5.53,0,0,0,4.21,1.49Z" transform="translate(-112.94 -275.73)"/><path class="cls-1" d="M234.32,302.89c.06,0,.51-1.66.55-1.77a34.7,34.7,0,0,1,1.89-4.4,33.67,33.67,0,0,1,3.6-5.61,27.75,27.75,0,0,1,5.67-5.42,25.15,25.15,0,0,1,8.1-3.8c5.37-1.44,12.42-1.42,17.62.74,4.78,2,8.57,5.86,11.5,10,2.32,3.27,4.16,7.14,4.11,11.23,0,0,16.52-4.06,26.19,15.28a26.68,26.68,0,0,1,1.95,10.06,22.12,22.12,0,0,1,14.28,2.72c2.12,1.22,3.91,2.51,5,4.74a16,16,0,0,1,1.26,7.58s-.47,11.7-10.13,12.16H218.28s-3.89,0-12.16,3L210,350s-14.81-16.68-2.5-36.33C207.52,313.65,212.15,303.52,234.32,302.89Z" transform="translate(-112.94 -275.73)"/><path class="cls-5" d="M244.21,299.15c.06,0,.51-1.66.55-1.77a34.79,34.79,0,0,1,5.49-10,27.92,27.92,0,0,1,5.66-5.41,25.53,25.53,0,0,1,8.09-3.8,30.66,30.66,0,0,1,10.88-.76,41.68,41.68,0,0,1,5.42.9,11.05,11.05,0,0,1,4.29,1.94,36.23,36.23,0,0,1,3.11,2.54,38.34,38.34,0,0,1,5.38,6.08c2.33,3.27,4.16,7.13,4.11,11.22,0,0,16.5-4.05,26.16,15.26,0,0,2.65,6.7,1.87,10.13h9.5s12.15,2.49,11.06,14.95c0,0-.47,11.68-10.13,12.15H228.19s-3.89,0-12.15,2.95l3.9-9.34s-14.8-16.66-2.49-36.29C217.45,309.89,222.07,299.77,244.21,299.15Z" transform="translate(-112.94 -275.73)"/><path class="cls-1" d="M216.56,410.29a5.54,5.54,0,0,0,4.21-1.49,6,6,0,0,0,1.81-4.16,10.18,10.18,0,0,0-1-3.67,33.11,33.11,0,0,0-2.05-4c-.92-1.56-1.91-3.08-3-4.54-1.07,1.46-2.06,3-3,4.54a34.63,34.63,0,0,0-2.05,4,10.17,10.17,0,0,0-1,3.67,6,6,0,0,0,1.81,4.16,5.53,5.53,0,0,0,4.21,1.49Z" transform="translate(-112.94 -275.73)"/><path class="cls-2" d="M213.56,410.29a5.54,5.54,0,0,0,4.21-1.49,6,6,0,0,0,1.81-4.16,10.18,10.18,0,0,0-1-3.67,33.11,33.11,0,0,0-2.05-4c-.92-1.56-1.91-3.08-3-4.54-1.07,1.46-2.06,3-3,4.54a34.63,34.63,0,0,0-2.05,4,10.17,10.17,0,0,0-1,3.67,6,6,0,0,0,1.81,4.16,5.53,5.53,0,0,0,4.21,1.49Z" transform="translate(-112.94 -275.73)"/><path class="cls-1" d="M216.56,435a5.54,5.54,0,0,0,4.21-1.49,6,6,0,0,0,1.81-4.17,10.18,10.18,0,0,0-1-3.66,33.11,33.11,0,0,0-2.05-4c-.92-1.56-1.91-3.08-3-4.54-1.07,1.46-2.06,3-3,4.54a34.63,34.63,0,0,0-2.05,4,10.17,10.17,0,0,0-1,3.66,6,6,0,0,0,1.81,4.17,5.53,5.53,0,0,0,4.21,1.49Z" transform="translate(-112.94 -275.73)"/><path class="cls-2" d="M213.56,435a5.54,5.54,0,0,0,4.21-1.49,6,6,0,0,0,1.81-4.17,10.18,10.18,0,0,0-1-3.66,33.11,33.11,0,0,0-2.05-4c-.92-1.56-1.91-3.08-3-4.54-1.07,1.46-2.06,3-3,4.54a34.63,34.63,0,0,0-2.05,4,10.17,10.17,0,0,0-1,3.66,6,6,0,0,0,1.81,4.17,5.53,5.53,0,0,0,4.21,1.49Z" transform="translate(-112.94 -275.73)"/><path class="cls-1" d="M252.63,386.6a5.54,5.54,0,0,0,4.21-1.49,6,6,0,0,0,1.81-4.16,10.22,10.22,0,0,0-1-3.67,34.7,34.7,0,0,0-2.06-4,53.6,53.6,0,0,0-3-4.54c-1.07,1.46-2.06,3-3,4.54a36.31,36.31,0,0,0-2.05,4,10.22,10.22,0,0,0-1,3.67,6,6,0,0,0,1.81,4.16,5.54,5.54,0,0,0,4.21,1.49Z" transform="translate(-112.94 -275.73)"/><path class="cls-2" d="M249.63,386.6a5.54,5.54,0,0,0,4.21-1.49,6,6,0,0,0,1.81-4.16,10.22,10.22,0,0,0-1-3.67,34.7,34.7,0,0,0-2.06-4,53.6,53.6,0,0,0-3-4.54c-1.07,1.46-2.06,3-3,4.54a36.31,36.31,0,0,0-2.05,4,10.22,10.22,0,0,0-1,3.67,6,6,0,0,0,1.81,4.16,5.54,5.54,0,0,0,4.21,1.49Z" transform="translate(-112.94 -275.73)"/><path class="cls-1" d="M252.63,411.29a5.54,5.54,0,0,0,4.21-1.49,6,6,0,0,0,1.81-4.16,10.17,10.17,0,0,0-1-3.67,34.7,34.7,0,0,0-2.06-4,52,52,0,0,0-3-4.54c-1.07,1.46-2.06,3-3,4.54a36.31,36.31,0,0,0-2.05,4,10.17,10.17,0,0,0-1,3.67,6,6,0,0,0,1.81,4.16,5.54,5.54,0,0,0,4.21,1.49Z" transform="translate(-112.94 -275.73)"/><path class="cls-2" d="M249.63,411.29a5.54,5.54,0,0,0,4.21-1.49,6,6,0,0,0,1.81-4.16,10.17,10.17,0,0,0-1-3.67,34.7,34.7,0,0,0-2.06-4,52,52,0,0,0-3-4.54c-1.07,1.46-2.06,3-3,4.54a36.31,36.31,0,0,0-2.05,4,10.17,10.17,0,0,0-1,3.67,6,6,0,0,0,1.81,4.16,5.54,5.54,0,0,0,4.21,1.49Z" transform="translate(-112.94 -275.73)"/><path class="cls-1" d="M328.76,386.6a5.54,5.54,0,0,0,4.21-1.49,6,6,0,0,0,1.81-4.16,10.43,10.43,0,0,0-1-3.67,34.7,34.7,0,0,0-2.06-4c-.92-1.55-1.9-3.08-3-4.54-1.07,1.46-2.06,3-3,4.54a34.63,34.63,0,0,0-2,4,10.22,10.22,0,0,0-1,3.67,6,6,0,0,0,1.81,4.16,5.54,5.54,0,0,0,4.21,1.49Z" transform="translate(-112.94 -275.73)"/><path class="cls-2" d="M325.76,386.6a5.54,5.54,0,0,0,4.21-1.49,6,6,0,0,0,1.81-4.16,10.43,10.43,0,0,0-1-3.67,34.7,34.7,0,0,0-2.06-4c-.92-1.55-1.9-3.08-3-4.54-1.07,1.46-2.06,3-3,4.54a34.63,34.63,0,0,0-2,4,10.22,10.22,0,0,0-1,3.67,6,6,0,0,0,1.81,4.16,5.54,5.54,0,0,0,4.21,1.49Z" transform="translate(-112.94 -275.73)"/><path class="cls-1" d="M328.76,411.29A5.54,5.54,0,0,0,333,409.8a6,6,0,0,0,1.81-4.16,10.37,10.37,0,0,0-1-3.67,34.7,34.7,0,0,0-2.06-4c-.92-1.56-1.9-3.08-3-4.54-1.07,1.46-2.06,3-3,4.54a34.63,34.63,0,0,0-2,4,10.17,10.17,0,0,0-1,3.67,6,6,0,0,0,1.81,4.16,5.54,5.54,0,0,0,4.21,1.49Z" transform="translate(-112.94 -275.73)"/><path class="cls-2" d="M325.76,411.29A5.54,5.54,0,0,0,330,409.8a6,6,0,0,0,1.81-4.16,10.37,10.37,0,0,0-1-3.67,34.7,34.7,0,0,0-2.06-4c-.92-1.56-1.9-3.08-3-4.54-1.07,1.46-2.06,3-3,4.54a34.63,34.63,0,0,0-2,4,10.17,10.17,0,0,0-1,3.67,6,6,0,0,0,1.81,4.16,5.54,5.54,0,0,0,4.21,1.49Z" transform="translate(-112.94 -275.73)"/><path class="cls-1" d="M328.76,435a5.54,5.54,0,0,0,4.21-1.49,6,6,0,0,0,1.81-4.17,10.38,10.38,0,0,0-1-3.66,34.7,34.7,0,0,0-2.06-4c-.92-1.56-1.9-3.08-3-4.54-1.07,1.46-2.06,3-3,4.54a34.63,34.63,0,0,0-2,4,10.17,10.17,0,0,0-1,3.66,6,6,0,0,0,1.81,4.17,5.54,5.54,0,0,0,4.21,1.49Z" transform="translate(-112.94 -275.73)"/><path class="cls-2" d="M325.76,435a5.54,5.54,0,0,0,4.21-1.49,6,6,0,0,0,1.81-4.17,10.38,10.38,0,0,0-1-3.66,34.7,34.7,0,0,0-2.06-4c-.92-1.56-1.9-3.08-3-4.54-1.07,1.46-2.06,3-3,4.54a34.63,34.63,0,0,0-2,4,10.17,10.17,0,0,0-1,3.66,6,6,0,0,0,1.81,4.17,5.54,5.54,0,0,0,4.21,1.49Z" transform="translate(-112.94 -275.73)"/><polyline class="cls-6" points="110.73 161.22 114.09 161.82 111.45 164.14 113.49 166.26"/></svg>